<?xml version="1.0" encoding="utf-8"?>
<!-- Generator: Adobe Illustrator 22.1.0, SVG Export Plug-In . SVG Version: 6.00 Build 0)  -->
<svg version="1.1" id="Layer_1" xmlns="http://www.w3.org/2000/svg" xmlns:xlink="http://www.w3.org/1999/xlink" x="0px" y="0px"
	 viewBox="0 0 1186.4 102.3" style="enable-background:new 0 0 1186.4 102.3;" xml:space="preserve">
<style type="text/css">
	.st0{fill:#FFFFFF;}
</style>
<g>
	<g>
		<polygon class="st0" points="53.9,66.8 19.8,0 0,0 0,101.7 13.8,101.7 13.8,17.8 47,82.8 60.8,82.8 94.1,17.8 94.1,101.7 
			107.8,101.7 107.8,0 88.1,0 		"/>
		<polygon class="st0" points="144.9,101.7 214.4,101.7 214.4,88.3 158.7,88.3 158.7,56.3 203.8,56.3 203.8,42.9 158.7,42.9 
			158.7,13.4 214.4,13.4 214.4,0 144.9,0 		"/>
		<path class="st0" d="M302.2,0h-55.4v101.7h55.4c13.5,0,21.9-7.7,21.9-20V20C324.1,7.7,315.7,0,302.2,0z M260.6,13.4h41.7
			c7.1,0,8.1,3.3,8.1,6.6v61.7c0,3.3-1,6.6-8.1,6.6h-41.7V13.4z"/>
		<rect x="358.9" class="st0" width="13.8" height="101.7"/>
		<path class="st0" d="M471.6,82.3c0,3.3-1,6.6-8.1,6.6h-33c-7.1,0-8.1-3.3-8.1-6.6V0h-13.8v82.3c0,12.3,8.4,20,21.9,20h33
			c13.5,0,21.9-7.7,21.9-20V0h-13.8V82.3z"/>
		<polygon class="st0" points="608.6,0 574.4,66.8 540.3,0 520.5,0 520.5,101.7 534.3,101.7 534.3,17.8 567.5,82.8 581.3,82.8 
			614.6,17.8 614.6,101.7 628.3,101.7 628.3,0 		"/>
	</g>
	<g>
		<path class="st0" d="M723.7,58.5l-40.2-9.2c-7.7-1.8-10.4-4.7-10.4-10.6V24.4c0-7.6,4.8-11.8,13.3-11.8h30.3
			c8.5,0,13.3,4.2,13.3,11.8v1.8h3.4v-1.8c0-9.4-6.1-14.8-16.7-14.8h-30.3c-10.6,0-16.7,5.4-16.7,14.8v14.3
			c0,8.5,4.3,11.3,13.8,13.6l40.2,9.2c6.1,1.4,8,5.1,8,10.1v15.6c0,7.6-4.8,11.8-13.3,11.8H686c-8.5,0-13.3-4.2-13.3-11.8v-3h-3.4v3
			c0,9.4,6.1,14.8,16.7,14.8h32.4c10.6,0,16.7-5.4,16.7-14.8V71.7C735.1,64.3,731.7,60.3,723.7,58.5z"/>
		<polygon class="st0" points="829.5,79.5 825.8,79.5 790.3,10.2 778.9,10.2 778.9,101.5 782.3,101.5 782.3,13.2 788.4,13.2 
			823.9,82.6 831.4,82.6 866.8,13.2 872.9,13.2 872.9,101.5 876.4,101.5 876.4,10.2 864.9,10.2 		"/>
		<path class="st0" d="M948.5,10.2l-32,91.3h3.4l8.5-24.5h55.5l8.3,24.5h3.4l-31.5-91.3H948.5z M929.6,74l21.1-60.8h11.2L982.7,74
			H929.6z"/>
		<polygon class="st0" points="1040.4,10.2 1036.9,10.2 1036.9,101.5 1091.8,101.5 1091.8,98.4 1040.4,98.4 		"/>
		<polygon class="st0" points="1134.9,98.4 1134.9,10.2 1131.5,10.2 1131.5,101.5 1186.4,101.5 1186.4,98.4 		"/>
	</g>
</g>
</svg>
